<svg width="120" height="128" viewBox="0 0 120 128" fill="none" xmlns="http://www.w3.org/2000/svg">
<path d="M62.7116 110.308C62.7116 110.308 94.5 82.1538 78 13.5C78 13.5 81.5192 12.1154 87.8077 11.1923C87.8654 11.1923 115.731 87.0577 62.7116 110.308ZM65.25 98.7115C68.3654 87.8654 70.0385 72.2307 70.2692 52.7307C70.3846 46.2692 70.2692 39.6346 69.9808 33.5192C63.4039 34.7307 54.2308 47.3654 49.9615 65.4807C47.6539 75.3461 47.25 84.9807 48.75 92.5961C50.0192 98.9423 52.6154 103.212 55.6731 103.904C58.3846 104.538 61.8462 102.635 65.25 98.7115ZM42.5769 63.2307C45.1154 52.5 49.4423 42.8654 54.6923 35.9423C59.3654 29.8269 64.5 26.3654 69.4616 25.7884C69.2308 22.3269 68.8846 19.1538 68.5385 16.4423C51.9231 21.4615 42.8077 27.4615 42.8077 27.4615C42.8077 27.4615 42.1731 40.7307 42.2308 48.4038C42.2885 53.7692 42.4039 58.673 42.5769 63.2307ZM39.2885 103.442C34.6154 98.1346 30.5769 90.5192 27.9231 81.923C25.2692 73.3846 24.2885 64.7884 25.2115 57.75C25.9039 52.4423 27.5769 48.2884 30.1731 45.6346C30.3462 41.7692 30.6346 38.1923 30.9231 35.1923L30.9808 34.2692C30.9808 34.2692 24.0577 38.6538 18 44.1923C18 44.1923 17.4231 49.3846 17.5385 55.5577C17.6539 63.5769 18.75 71.3077 20.7692 77.8846C23.1923 85.6153 26.7692 92.3653 31.5 97.9038C38.5962 106.212 45.9808 109.212 47.8846 109.904C45.0577 108.808 42.1154 106.615 39.2885 103.442Z" fill="#2D3CFF"/>
<path d="M62.7116 110.308C62.7116 110.308 94.5 82.1538 78 13.5C78 13.5 81.5192 12.1154 87.8077 11.1923C87.8654 11.1923 115.731 87.0577 62.7116 110.308ZM65.25 98.7115C68.3654 87.8654 70.0385 72.2307 70.2692 52.7307C70.3846 46.2692 70.2692 39.6346 69.9808 33.5192C63.4039 34.7307 54.2308 47.3654 49.9615 65.4807C47.6539 75.3461 47.25 84.9807 48.75 92.5961C50.0192 98.9423 52.6154 103.212 55.6731 103.904C58.3846 104.538 61.8462 102.635 65.25 98.7115ZM42.5769 63.2307C45.1154 52.5 49.4423 42.8654 54.6923 35.9423C59.3654 29.8269 64.5 26.3654 69.4616 25.7884C69.2308 22.3269 68.8846 19.1538 68.5385 16.4423C51.9231 21.4615 42.8077 27.4615 42.8077 27.4615C42.8077 27.4615 42.1731 40.7307 42.2308 48.4038C42.2885 53.7692 42.4039 58.673 42.5769 63.2307ZM39.2885 103.442C34.6154 98.1346 30.5769 90.5192 27.9231 81.923C25.2692 73.3846 24.2885 64.7884 25.2115 57.75C25.9039 52.4423 27.5769 48.2884 30.1731 45.6346C30.3462 41.7692 30.6346 38.1923 30.9231 35.1923L30.9808 34.2692C30.9808 34.2692 24.0577 38.6538 18 44.1923C18 44.1923 17.4231 49.3846 17.5385 55.5577C17.6539 63.5769 18.75 71.3077 20.7692 77.8846C23.1923 85.6153 26.7692 92.3653 31.5 97.9038C38.5962 106.212 45.9808 109.212 47.8846 109.904C45.0577 108.808 42.1154 106.615 39.2885 103.442Z" fill="url(#paint0_linear_2_786)"/>
<path d="M59.25 107.423C49.7308 106.269 48.2885 96.1154 47.7692 89.7115C47.1346 81.8654 48.4039 69.9231 51 61.5577C52.4423 56.4231 54.2885 51.8077 56.3654 47.8846C58.4423 43.6731 61.2115 39.1154 64.9615 34.6154C70.2115 28.3269 77.4808 28.6731 81.6923 33.3461C81.5769 32.5961 81.5192 31.8461 81.4039 31.0961C79.3269 28.4423 76.7308 26.7115 73.7885 26.0192C67.5 24.5769 60.75 28.0961 54.75 35.9423C49.3269 42.9808 45 52.8461 42.4615 63.75C39.9231 74.6538 39.4615 85.4423 41.1923 94.0961C43.1539 103.788 47.6539 109.962 53.9423 111.404C54.6923 111.577 55.5 111.692 56.25 111.692C58.4423 111.692 60.5192 111.173 62.7692 110.25C62.8269 110.192 64.3846 108.808 66.6346 105.923C64.2692 107.135 61.7885 107.769 59.25 107.423Z" fill="url(#paint1_radial_2_786)"/>
<path d="M37.5577 45.5192C35.5962 46.9615 33.4038 50.0192 32.7115 55.3846C32.0192 60.6346 32.4808 66.9231 33.9231 73.5C32.8269 68.1346 32.4808 63.0577 33.0577 58.7308C33.6346 54.1154 35.25 50.8269 37.2115 50.1923C37.4423 50.1346 37.7308 50.0769 38.0769 50.0769C39.2885 50.0769 40.7308 50.7115 42.3462 51.9231V44.9423C40.5 44.4808 38.8269 44.5962 37.5577 45.5192Z" fill="#FF00D2"/>
<path d="M32.7115 55.4423C33.4038 50.0769 35.5962 46.9615 37.5577 45.5769C38.8846 44.5961 40.5577 44.5385 42.3462 45.0577C42.3462 44.4231 42.3462 43.7308 42.4038 43.0961C39.8654 42.1731 37.3269 42 34.9038 42.75C29.7115 44.3654 26.25 49.6731 25.2692 57.8077C24.4038 64.8461 25.3269 73.3846 27.9808 81.9808C30.6346 90.5192 34.6731 98.1923 39.3462 103.442C42.2308 106.731 45.2308 108.923 48.2308 110.077C48.6346 110.25 49.0385 110.365 49.5 110.481C49.5577 110.481 49.6731 110.538 49.7308 110.538C52.1538 111.346 54.2885 111.75 56.25 111.75C55.5 111.692 54.75 111.635 54 111.462C47.7115 110.019 43.2115 103.846 41.25 94.1538L40.9038 92.0769C38.8846 88.6731 37.0385 84.5192 35.5385 79.6154C34.9038 77.5961 34.3846 75.5192 33.9808 73.5577C32.4231 66.9808 32.0192 60.6923 32.7115 55.4423Z" fill="url(#paint2_radial_2_786)"/>
<path d="M81.6923 33.3462C77.4231 28.6731 70.2115 28.3269 64.9615 34.6154C61.2115 39.1154 58.4423 43.6731 56.3654 47.8846C60.9231 39.0577 66.5192 33.6346 70.7308 33.4038C71.1923 33.4038 71.5961 33.4038 72.0577 33.5192C75.1154 34.2115 77.7115 38.4808 78.9808 44.8269C80.4808 52.4423 80.0769 62.0769 77.7692 71.9423C76.2115 78.6923 73.9615 84.6923 71.3654 89.5961C69.4615 93.2884 67.3846 96.3461 65.3077 98.7115L65.1923 98.8269C65.1923 98.8846 65.1346 98.8846 65.1346 98.9423L65.0769 99L64.8462 99.2308L64.7885 99.2884L64.7308 99.3461L64.6731 99.4038L64.6154 99.4615L64.5 99.5769L64.4423 99.6346L64.3269 99.75C64.2692 99.8654 64.1538 99.9231 64.0961 99.9808C63.8077 100.269 63.4615 100.558 63.1731 100.846C60.4615 103.269 57.8654 104.365 55.7308 103.904C52.6731 103.212 50.0769 98.9423 48.8077 92.5961C47.3077 84.9808 47.7115 75.3461 50.0192 65.4808C50.3077 64.1538 50.6538 62.8269 51 61.5577C48.4038 69.9231 47.1346 81.8654 47.7692 89.7115C48.2885 96.1154 49.6731 106.212 59.25 107.423C61.8461 107.769 64.3269 107.135 66.6346 105.923C67.7885 104.423 69.1154 102.519 70.5577 100.212V100.154C70.6154 100.096 70.6154 100.038 70.6731 99.9808C77.4808 88.5577 85.7885 67.0961 81.6923 33.3462Z" fill="url(#paint3_linear_2_786)"/>
<defs>
<linearGradient id="paint0_linear_2_786" x1="48.2071" y1="21.3836" x2="71.5512" y2="107.901" gradientUnits="userSpaceOnUse">
<stop stop-color="#2D3CFF" stop-opacity="0"/>
<stop offset="1" stop-color="#19194B" stop-opacity="0.55"/>
</linearGradient>
<radialGradient id="paint1_radial_2_786" cx="0" cy="0" r="1" gradientUnits="userSpaceOnUse" gradientTransform="translate(58.6592 31.4006) rotate(-43.6994) scale(9.82997 4.8757)">
<stop stop-color="#FF8366"/>
<stop offset="1" stop-color="#FF3000"/>
</radialGradient>
<radialGradient id="paint2_radial_2_786" cx="0" cy="0" r="1" gradientUnits="userSpaceOnUse" gradientTransform="translate(27.166 49.8309) rotate(115.702) scale(8.47417 4.66897)">
<stop stop-color="#FF8366"/>
<stop offset="1" stop-color="#FF3000"/>
</radialGradient>
<linearGradient id="paint3_linear_2_786" x1="65.1917" y1="107.523" x2="65.1917" y2="29.8708" gradientUnits="userSpaceOnUse">
<stop stop-color="#DC0A0A"/>
<stop offset="1" stop-color="#FF00D2"/>
</linearGradient>
</defs>
</svg>
